<?xml version="1.0" encoding="utf-8"?>
<!-- Generator: Adobe Illustrator 25.4.8, SVG Export Plug-In . SVG Version: 6.00 Build 0)  -->
<svg version="1.1" id="Layer_1" xmlns="http://www.w3.org/2000/svg" xmlns:xlink="http://www.w3.org/1999/xlink" x="0px" y="0px"
	 viewBox="0 0 800 800" style="enable-background:new 0 0 800 800;" xml:space="preserve">
<g>
	<path d="M335.27,286l-6.91,2.54l6.91,2.44L391,309.59v27.56L301,299.83v-22.88L391,239.63v27.46L335.27,286z"/>
	<path d="M493.19,351.79c-0.68-1.36-1.26-2.91-1.73-4.68c-0.47-1.76-0.88-3.63-1.22-5.59c-1.56,1.7-3.35,3.29-5.39,4.78
		c-2.03,1.49-4.29,2.8-6.76,3.91c-2.47,1.12-5.2,2-8.19,2.64c-2.98,0.64-6.2,0.97-9.66,0.97c-5.63,0-10.8-0.81-15.51-2.44
		c-4.71-1.63-8.76-3.9-12.15-6.81c-3.39-2.91-6.03-6.39-7.93-10.42c-1.9-4.03-2.85-8.42-2.85-13.17c0-11.59,4.32-20.56,12.97-26.9
		c8.64-6.34,21.54-9.51,38.69-9.51h15.76v-6.51c0-5.29-1.73-9.47-5.19-12.56c-3.46-3.08-8.44-4.63-14.95-4.63
		c-5.76,0-9.96,1.24-12.61,3.71c-2.64,2.48-3.97,5.78-3.97,9.91h-28.27c0-4.68,1.03-9.12,3.1-13.32c2.07-4.2,5.08-7.9,9.05-11.08
		c3.97-3.19,8.81-5.71,14.54-7.58c5.73-1.86,12.29-2.8,19.68-2.8c6.64,0,12.83,0.81,18.56,2.44c5.73,1.63,10.69,4.03,14.9,7.22
		c4.2,3.19,7.49,7.2,9.86,12.05c2.37,4.85,3.56,10.46,3.56,16.83v47.18c0,5.9,0.37,10.78,1.12,14.64c0.74,3.86,1.83,7.19,3.26,9.97
		v1.73H493.19z M466.25,331.96c2.85,0,5.49-0.34,7.93-1.02c2.44-0.68,4.64-1.56,6.61-2.64c1.96-1.08,3.66-2.32,5.08-3.71
		c1.42-1.39,2.54-2.8,3.36-4.22v-18.91h-14.44c-4.41,0-8.17,0.42-11.29,1.27c-3.12,0.85-5.66,2.03-7.63,3.56
		c-1.97,1.53-3.42,3.36-4.37,5.49c-0.95,2.14-1.42,4.46-1.42,6.97c0,3.8,1.34,6.95,4.02,9.46
		C456.77,330.71,460.82,331.96,466.25,331.96z"/>
	<path d="M348.19,480.32c2.78,0,5.42-0.41,7.93-1.22c2.51-0.81,4.71-1.97,6.61-3.46c1.9-1.49,3.37-3.29,4.42-5.39
		c1.05-2.1,1.51-4.44,1.37-7.02h26.64c0.14,5.69-1.03,10.98-3.51,15.86c-2.48,4.88-5.85,9.08-10.12,12.61
		c-4.27,3.53-9.24,6.29-14.9,8.29c-5.66,2-11.64,3-17.95,3c-8.54,0-16.03-1.44-22.47-4.32c-6.44-2.88-11.81-6.83-16.12-11.85
		c-4.31-5.02-7.56-10.9-9.76-17.64c-2.2-6.74-3.31-13.98-3.31-21.71v-3.05c0-7.73,1.08-14.96,3.25-21.71
		c2.17-6.74,5.42-12.62,9.76-17.64c4.34-5.02,9.71-8.98,16.12-11.9c6.41-2.91,13.84-4.37,22.32-4.37c6.78,0,13.05,1.02,18.81,3.05
		c5.76,2.03,10.73,4.9,14.9,8.59c4.17,3.7,7.41,8.17,9.71,13.42c2.3,5.25,3.39,11.13,3.25,17.64h-26.64
		c0.14-2.71-0.27-5.29-1.22-7.73c-0.95-2.44-2.34-4.54-4.17-6.3c-1.83-1.76-4.03-3.17-6.61-4.22c-2.58-1.05-5.39-1.58-8.44-1.58
		c-4.47,0-8.17,0.92-11.08,2.75c-2.92,1.83-5.24,4.27-6.97,7.32c-1.73,3.05-2.95,6.54-3.66,10.47c-0.71,3.93-1.07,8-1.07,12.2v3.05
		c0,4.27,0.34,8.39,1.02,12.36c0.68,3.97,1.88,7.46,3.61,10.47c1.73,3.02,4.07,5.44,7.02,7.27
		C339.9,479.41,343.64,480.32,348.19,480.32z"/>
	<path d="M426.49,416.06V388.7L518,425.92v23.08l-91.52,37.32v-27.46l58.27-19.52l6.2-2.03l-6.1-2.03L426.49,416.06z"/>
</g>
</svg>
